<svg width="20" height="20" viewBox="0 0 20 20" fill="none" xmlns="http://www.w3.org/2000/svg">
<path d="M10.0001 9.58317C9.44755 9.58317 8.91764 9.36368 8.52694 8.97298C8.13624 8.58228 7.91675 8.05237 7.91675 7.49984C7.91675 6.9473 8.13624 6.4174 8.52694 6.0267C8.91764 5.636 9.44755 5.4165 10.0001 5.4165C10.5526 5.4165 11.0825 5.636 11.4732 6.0267C11.8639 6.4174 12.0834 6.9473 12.0834 7.49984C12.0834 7.77342 12.0295 8.04433 11.9248 8.29709C11.8201 8.54986 11.6667 8.77952 11.4732 8.97298C11.2798 9.16643 11.0501 9.31989 10.7973 9.42459C10.5446 9.52928 10.2737 9.58317 10.0001 9.58317ZM10.0001 1.6665C8.45299 1.6665 6.96925 2.28109 5.87529 3.37505C4.78133 4.46901 4.16675 5.95274 4.16675 7.49984C4.16675 11.8748 10.0001 18.3332 10.0001 18.3332C10.0001 18.3332 15.8334 11.8748 15.8334 7.49984C15.8334 5.95274 15.2188 4.46901 14.1249 3.37505C13.0309 2.28109 11.5472 1.6665 10.0001 1.6665Z" fill="#F3F2A7"/>
</svg>
